{"title":"Epic.2013.TS.XviD.AC3.HQ.Hive-CM8","uid":8517412,"size":1646482306,"categoryP":"video","categoryS":"movies","magnet":"?xt=urn:btih:0c3535eac5559226dfbe69ff3d918c77330d400b&amp;dn=Epic.2013.TS.XviD.AC3.HQ.Hive-CM8&amp;tr=udp%3A%2F%2Ftracker.openbittorrent.com%3A80&amp;tr=udp%3A%2F%2Fopen.demonii.com%3A1337&amp;tr=udp%3A%2F%2Ftracker.coppersurfer.tk%3A6969&amp;tr=udp%3A%2F%2Fexodus.desync.com%3A6969","seeders":4,"leechers":0,"uploader":"R0thschild","files":5,"time":1369790013,"description":"              ***********************************************\n\n                PublicHash - Largest Bittorrent Community\n      \n                         &lt;a href=&quot; http://publichash.com/&quot; rel=&quot;nofollow&quot; target=&quot;_NEW&quot;&gt; http://publichash.com/&lt;/a&gt;\n    \n              ***********************************************\n\nEpic.2013.TS.XviD.AC3.HQ.Hive-CM8\n\nVideo: 720x288 @bitrate 2000 2pass\nAudio: English AC3 2.0 Stereo\nSample: Yes, included\nIMDb: http://www.imdb.com/title/tt0848537/\n\nSOURCES\nVideo: Spanish HDCam - thx\nAudio: Milleniums Line - thx\n\nENCODE\ntook me 2 days for video and 5h of audio syncing, but result got great\nNO PIXELATION like on russian vid\nsource was nice just needed adjusting\nbrightness, contrast, rgb, hue, saturation and denoise\nfor Audio, took me 86 cuts to make this lipsync, wasnt easy i can tell\ncleaned up the line, sounds very nice now too\nwill def. do me till retail\ngot very nice\nenjoy\n\nGeneral\nComplete name: Epic.2013.TS.XviD.AC3.HQ.Hive-CM8.avi\nFormat: AVI\nFormat/Info: Audio Video Interleave\nFile size: 1.49 GiB\nDuration: 1h 34mn\nOverall bit rate: 2 267 Kbps\nWriting application: Nandub v1.0rc2\nWriting library: Nandub build 1853/release\n\nVideo\nID: 0\nFormat: MPEG-4 Visual\nFormat profile: Advanced Simple@L5\nFormat settings, BVOP: 2\nFormat settings, QPel: Yes\nFormat settings, GMC: No warppoints\nFormat settings, Matrix: Default (H.263)\nMuxing mode: Packed bitstream\nCodec ID: XVID\nCodec ID/Hint: XviD\nDuration: 1h 34mn\nBit rate: 2 000 Kbps\nWidth: 720 pixels\nHeight: 288 pixels\nDisplay aspect ratio: 2.500\nFrame rate: 29.970 fps\nColor space: YUV\nChroma subsampling: 4:2:0\nBit depth: 8 bits\nScan type: Progressive\nCompression mode: Lossy\nBits/(Pixel*Frame): 0.322\nStream size: 1.31 GiB (88%)\nWriting library: XviD 1.2.1 (UTC 2008-12-04)\n\nAudio\nID: 1\nFormat: AC-3\nFormat/Info: Audio Coding 3\nMode extension: CM (complete main)\nFormat settings, Endianness: Big\nCodec ID: 2000\nDuration: 1h 34mn\nBit rate mode: Constant\nBit rate: 256 Kbps\nChannel(s): 2 channels\nChannel positions: Front: L R\nSampling rate: 48.0 KHz\nBit depth: 16 bits\nCompression mode: Lossy\nStream size: 172 MiB (11%)\nAlignment: Split accross interleaves\nInterleave, duration: 33 ms (1.00 video frame)\nInterleave, preload duration: 500 ms\n\nPLOT\nA teenager finds herself transported to a deep forest setting where a battle between\nthe forces of good and the forces of evil is taking place. She bands together with a\nrag-tag group of characters in order to save their world -- and ours\n\nCAST\nAmanda Seyfried ... Mary Katherine (M.K.) (voice)\nColin Farrell ... Ronin (voice)\nJosh Hutcherson ... Nod (voice)\nBeyonce Knowles ... Queen Tara (voice) ","torrent":{"xt":"urn:btih:0c3535eac5559226dfbe69ff3d918c77330d400b","amp;dn":"Epic.2013.TS.XviD.AC3.HQ.Hive-CM8","amp;tr":["udp%3A%2F%2Ftracker.openbittorrent.com%3A80","udp%3A%2F%2Fopen.demonii.com%3A1337","udp%3A%2F%2Ftracker.coppersurfer.tk%3A6969","udp%3A%2F%2Fexodus.desync.com%3A6969"],"infoHash":"0c3535eac5559226dfbe69ff3d918c77330d400b","infoHashBuffer":{"type":"Buffer","data":[12,53,53,234,197,85,146,38,223,190,105,255,61,145,140,119,51,13,64,11]},"announce":[],"urlList":[]}}